<svg width="45" height="45" viewBox="0 0 45 45" fill="none" xmlns="http://www.w3.org/2000/svg">
<path d="M8.25752 29.0182H9.39584C9.76471 31.127 11.6045 32.7355 13.8177 32.7355C16.031 32.7355 17.8692 31.1255 18.238 29.0182H26.9939C27.3628 31.127 29.2025 32.7355 31.4142 32.7355C33.6274 32.7355 35.4673 31.1255 35.8361 29.0182H39.9932C40.8307 29.0182 41.511 28.3379 41.511 27.5004V23.3235C41.511 21.189 39.7755 19.4535 37.641 19.4535H33.0241C30.176 16.7339 28.8321 13.1632 24.6672 13.1632H15.3413C13.2234 13.1632 11.2747 14.2274 10.1303 16.0098L7.92021 19.4535H5.16133C4.7335 19.4535 4.38733 19.7996 4.38733 20.2275V25.1497C4.38733 27.2827 6.1243 29.0182 8.25733 29.0182L8.25752 29.0182ZM13.8176 31.189C12.197 31.189 10.8788 29.8738 10.8742 28.2548C10.8742 28.2517 10.8757 28.2487 10.8757 28.2442C10.8757 28.2412 10.8742 28.2381 10.8742 28.2336C10.8803 26.6145 12.1985 25.2994 13.8176 25.2994C15.4411 25.2994 16.7609 26.6206 16.7609 28.2442C16.7624 29.8678 15.4411 31.189 13.8176 31.189V31.189ZM31.4156 31.189C29.792 31.189 28.4723 29.8677 28.4723 28.2457C28.4723 26.6221 29.792 25.3008 31.4156 25.3008C33.0377 25.3008 34.3574 26.619 34.3604 28.2396C34.3604 28.2411 34.3589 28.2427 34.3589 28.2442C34.3589 28.2457 34.3604 28.2472 34.3604 28.2487C34.3574 29.8708 33.0377 31.189 31.4156 31.189V31.189ZM30.956 19.4536H21.1131V14.7113H24.6671C27.7918 14.7113 28.8169 17.4067 30.9559 19.4536H30.956ZM11.4338 16.8459C12.2925 15.5095 13.7528 14.7113 15.3418 14.7113H19.567V19.4536H9.75889L11.4338 16.8459ZM5.93572 21.0015H37.6426C38.9231 21.0015 39.9646 22.0431 39.9646 23.3235L39.9949 27.4717H35.8377C35.4688 25.3629 33.6291 23.7529 31.4158 23.7529C29.2026 23.7529 27.3643 25.3629 26.9955 27.4717H18.2397C17.8708 25.3629 16.031 23.7529 13.8193 23.7529C11.6062 23.7529 9.76629 25.3629 9.39748 27.4717H8.25765C6.97722 27.4717 5.93565 26.4302 5.93565 25.1497L5.93572 21.0015Z" fill="#FF8A17"/>
</svg>
