<svg width="25" height="25" viewBox="0 0 25 25" fill="none" xmlns="http://www.w3.org/2000/svg">
<path fill-rule="evenodd" clip-rule="evenodd" d="M5.36179 15.6743C6.2604 14.7756 7.47918 14.2708 8.75001 14.2708H16.25C17.5208 14.2708 18.7396 14.7756 19.6382 15.6743C20.5368 16.5729 21.0417 17.7916 21.0417 19.0625V20.9375C21.0417 21.5128 20.5753 21.9791 20 21.9791C19.4247 21.9791 18.9583 21.5128 18.9583 20.9375V19.0625C18.9583 18.3442 18.673 17.6553 18.1651 17.1474C17.6572 16.6395 16.9683 16.3541 16.25 16.3541H8.75001C8.03172 16.3541 7.34284 16.6395 6.83493 17.1474C6.32702 17.6553 6.04168 18.3442 6.04168 19.0625V20.9375C6.04168 21.5128 5.57531 21.9791 5.00001 21.9791C4.42471 21.9791 3.95834 21.5128 3.95834 20.9375V19.0625C3.95834 17.7917 4.46318 16.5729 5.36179 15.6743Z" fill="#454444"/>
<path fill-rule="evenodd" clip-rule="evenodd" d="M12.5 5.10415C11.0042 5.10415 9.79168 6.31671 9.79168 7.81248C9.79168 9.30825 11.0042 10.5208 12.5 10.5208C13.9958 10.5208 15.2083 9.30825 15.2083 7.81248C15.2083 6.31671 13.9958 5.10415 12.5 5.10415ZM7.70834 7.81248C7.70834 5.16612 9.85365 3.02081 12.5 3.02081C15.1464 3.02081 17.2917 5.16612 17.2917 7.81248C17.2917 10.4588 15.1464 12.6041 12.5 12.6041C9.85365 12.6041 7.70834 10.4588 7.70834 7.81248Z" fill="#454444"/>
</svg>
