<svg width="45" height="45" viewBox="0 0 45 45" fill="none" xmlns="http://www.w3.org/2000/svg">
<path fill-rule="evenodd" clip-rule="evenodd" d="M37.1128 10.4974L37.1447 11.1744C37.1697 11.7077 37.6718 24.2847 30.1575 30.7963C25.8267 34.5491 19.3329 34.2335 15.3811 30.1867L9.35099 35.0107C8.98442 35.304 8.44952 35.2446 8.15626 34.878C7.86301 34.5114 7.92244 33.9765 8.28901 33.6833L14.2917 28.8811C11.1202 24.4112 11.804 18.1572 16.0309 14.4943C23.5449 7.983 35.923 10.269 36.4471 10.3695L37.1128 10.4974ZM19.4891 26.9075L16.838 29.2048L16.8381 29.2048C20.1759 32.3937 25.4717 32.5802 29.0308 29.4961C34.9543 24.3631 35.4216 14.6314 35.4345 11.9514C32.779 11.5818 23.081 10.6609 17.1572 15.7941C13.5982 18.8783 13.0297 24.147 15.7115 27.9026L18.3625 25.6053L18.5577 17.3139C18.5687 16.8387 18.9636 16.4626 19.4388 16.4737C19.9148 16.4857 20.29 16.8795 20.279 17.3547L20.1202 24.0824L24.4912 20.2946L24.6139 15.088C24.6249 14.6128 25.0198 14.2367 25.495 14.2478C25.9691 14.2597 26.3462 14.6537 26.3351 15.1288L26.2495 18.7727L32.5481 13.3147C32.9067 13.0039 33.4498 13.0418 33.7614 13.4014C34.0722 13.7601 34.0343 14.3031 33.6747 14.6148L27.3761 20.0728L30.9952 20.5064C31.4671 20.5631 31.8044 20.9915 31.7477 21.4634C31.6911 21.9353 31.2626 22.2727 30.7907 22.216L25.6187 21.5957L21.2477 25.3834L27.9293 26.1853C28.4013 26.242 28.7386 26.6704 28.6819 27.1423C28.6252 27.6142 28.1968 27.9515 27.7249 27.8948L19.4891 26.9075Z" fill="#FF8A17"/>
</svg>
