<svg width="45" height="45" viewBox="0 0 45 45" fill="none" xmlns="http://www.w3.org/2000/svg">
<path d="M33.7572 7.75801C32.8551 7.76982 31.9529 8.12124 31.2648 8.8093L25.9962 14.0658L11.6088 10.8291C11.25 10.7494 10.8882 10.7435 10.5456 10.8055C9.51945 10.9901 8.64974 11.7682 8.49027 12.8491C8.38838 13.5401 8.61282 14.2164 9.01002 14.7036C9.40721 15.1908 9.92697 15.5423 10.522 15.8849L19.1688 20.8699L14.5972 25.4294L8.85617 25.5711C8.50918 25.5785 8.21092 25.8221 8.13563 26.1617L7.78125 27.7919C7.72514 28.0429 7.80045 28.3057 7.98206 28.4888L16.5105 37.0173C16.6936 37.1989 16.9564 37.2742 17.2075 37.2181L18.8258 36.8637C19.1654 36.7884 19.409 36.4901 19.4164 36.1431L19.5581 30.3904L24.1176 25.8188L29.1143 34.4773C29.4569 35.0723 29.7965 35.5921 30.2838 35.9893C30.7711 36.3865 31.4473 36.5991 32.1383 36.4973C33.5795 36.2846 34.4802 34.8258 34.1583 33.3905L30.9335 18.991L36.1783 13.7345C37.5544 12.3584 37.6002 10.1229 36.2373 8.76158C35.5566 8.08088 34.6589 7.7457 33.7567 7.75754L33.7572 7.75801ZM33.769 9.25821C34.2799 9.25083 34.7775 9.43983 35.1629 9.82521C35.9352 10.5975 35.9337 11.8422 35.1157 12.6602V12.672L18.2829 29.5403C18.1471 29.6746 18.0659 29.8563 18.0585 30.0482L17.9168 35.5175L17.2789 35.6593L9.34088 27.7095L9.48263 27.0717L14.9402 26.9299C15.1336 26.9284 15.3211 26.8517 15.4599 26.7173L32.3282 9.88458C32.7372 9.47558 33.2584 9.26591 33.7693 9.25854L33.769 9.25821ZM11.0301 12.2704C11.1113 12.2749 11.191 12.2867 11.2781 12.3059L24.7327 15.3299L20.2794 19.7596L11.2785 14.5739C10.744 14.2653 10.3675 13.9891 10.18 13.7588C9.99248 13.5285 9.94371 13.3956 9.99096 13.0737C10.0663 12.5613 10.4635 12.238 11.0305 12.2704L11.0301 12.2704ZM29.67 20.2557L32.6822 33.7219C32.8402 34.4233 32.5109 34.9239 31.9262 35.0095C31.6043 35.0567 31.47 35.005 31.2411 34.8205C31.0122 34.6329 30.7331 34.2564 30.426 33.7219L25.2285 24.7089L29.67 20.2557Z" fill="#FF8A17"/>
</svg>
